<svg xmlns="http://www.w3.org/2000/svg" id="ThirdAI_logo" width="550" height="128.839" viewBox="0 0 550 128.839"><g id="Group_8" data-name="Group 8"><g id="Group_7" data-name="Group 7"><path id="Path_62" data-name="Path 62" d="M54.87,0A64.429,64.429,0,0,0-3.218,91.731l9.373-9.4A52.137,52.137,0,0,1,54.87,12.345h0c.863,0,1.727.021,2.576.062.332.014.656.049.981.069.525.035,1.043.069,1.554.118.421.042.829.1,1.25.153s.822.1,1.236.16c.477.069.939.153,1.416.236.332.062.677.118,1.008.18.518.1,1.036.222,1.547.34.276.062.553.118.829.187.559.139,1.112.291,1.665.444l.642.187c.6.173,1.195.368,1.789.569.145.049.3.1.449.153.642.222,1.278.458,1.906.7l.256.1c.691.27,1.368.562,2.044.867a.052.052,0,0,1,.028.014,52.135,52.135,0,0,1,27.78,30.334h0c.262.749.5,1.5.732,2.268a.129.129,0,0,1,.014.049c.228.756.435,1.512.622,2.282a.026.026,0,0,1,.007.021,51.358,51.358,0,0,1,1.257,7.185l12.2,12.254a66.167,66.167,0,0,0,.366-6.859A64.363,64.363,0,0,0,54.87,0" transform="translate(9.289 0)" fill="#04abff"></path><path id="Path_63" data-name="Path 63" d="M60.819,39.4a.475.475,0,0,0-.055.021c-1.209.388-2.431.742-3.675,1.04-.138.035-.269.062-.408.1-1.16.27-2.335.513-3.523.707l-.242.042c-1.2.194-2.411.333-3.633.437l-.794.062c-1.229.083-2.466.146-3.716.146h0c-1.126,0-2.238-.049-3.343-.118-.29-.021-.58-.042-.87-.069-.926-.069-1.851-.173-2.763-.291-.18-.028-.366-.049-.546-.069q-1.689-.25-3.336-.6l-.269-.062c-1.05-.229-2.086-.492-3.108-.784-.1-.035-.207-.062-.318-.09a52.032,52.032,0,0,1-31.5-26.035L-10.3,22.891A64.136,64.136,0,0,0,44.774,54.3,64.318,64.318,0,0,0,107.31,4.208L96.507-6.639A52.061,52.061,0,0,1,60.819,39.4" transform="translate(19.388 74.539)" fill="#04abff"></path></g><path id="Path_64" data-name="Path 64" d="M106.97,29.771,72.325-5.016l-27.891,28-27.9-28L-18.109,29.778a64.145,64.145,0,0,0,4.427,12.962l.028.021L16.537,12.44l27.9,28,27.891-28,30.211,30.327a64.022,64.022,0,0,0,4.427-12.948Z" transform="translate(19.727 48.977)" fill="#032ba5"></path></g><g id="Group_5" data-name="Group 5" transform="translate(152.142 18.922)"><path id="Path_66" data-name="Path 66" d="M0,9.015H28.077V97.154h12.2V9.015H68.352V-1.519H0Z" transform="translate(0 1.525)" fill="#032ba5"></path><path id="Path_67" data-name="Path 67" d="M29.594,18.892c-9.642,0-17.157,4.841-22.69,12.386V-3.183H-5.01V95.5H6.9V41.958c5.1-8.114,11.2-13.669,19.713-13.669,7.66,0,12.481,3.7,12.481,15.237V95.5H51.006V41.812c0-14.092-7.936-22.921-21.412-22.921" transform="translate(80.024 3.183)" fill="#032ba5"></path><path id="Path_69" data-name="Path 69" d="M42.927,62.48H54.842v-74.9H42.927Z" transform="translate(101.43 36.201)" fill="#032ba5"></path><path id="Path_70" data-name="Path 70" d="M26.924,0C17.7,0,10.755,5.839,6.783,17.373V1.706H-4.558v74.9H7.357V32.748c3.4-14.377,8.793-21.076,18.29-21.076a23.427,23.427,0,0,1,6.527.86L34.3.853A30.007,30.007,0,0,0,26.924,0" transform="translate(174.152 22.075)" fill="#032ba5"></path><path id="Path_71" data-name="Path 71" d="M42.33,0V31.472c-4.821-5.125-11.2-9.4-20.279-9.4-18.3,0-29.217,16.513-29.217,39.44,0,23.5,10.07,38.872,28.084,38.872,9.5,0,17.019-4.841,21.695-12.247L43.891,98.68H54.244V0Zm0,79.026c-4.966,7.552-10.354,11.817-19,11.817-11.2,0-17.73-9.536-17.73-29.474s7.377-29.759,19-29.759c7.8,0,13.192,3.988,17.73,10.111Z" transform="translate(214.221 0.003)" fill="#032ba5"></path></g><g id="Group_6" data-name="Group 6" transform="translate(291.195 11.236)"><path id="Path_72" data-name="Path 72" d="M19.139,9.615A11.189,11.189,0,1,1,7.949-1.62,11.21,11.21,0,0,1,19.139,9.615" transform="translate(3.24 1.62)" fill="#04abff"></path><path id="Path_74" data-name="Path 74" d="M24.863,66.29,19.9,87.5H-4.209L25.429-11.169H53.651L83.289,87.5H58.617L53.506,66.29ZM39.188,5.774,28.834,49.347h20.7Z" transform="translate(142.938 18.861)" fill="#04abff"></path><path id="Path_75" data-name="Path 75" d="M76.262,82.831H99.518v-98.68H76.262Z" transform="translate(159.287 23.536)" fill="#04abff"></path></g></svg>